# Blender 5.0.0
# www.blender.org
mtllib esquerda.mtl
g Placa_esquerda_Mesh
v 0.005500 0.000000 0.701487
v -0.005500 0.000000 0.701487
v 0.005500 -0.029264 0.698605
v -0.005500 -0.029264 0.698605
v 0.005500 -0.057403 0.690069
v -0.005500 -0.057403 0.690069
v 0.005500 -0.083336 0.676208
v -0.005500 -0.083336 0.676208
v 0.005500 -0.106066 0.657553
v -0.005500 -0.106066 0.657553
v 0.005500 -0.124720 0.634823
v -0.005500 -0.124720 0.634823
v 0.005500 -0.138582 0.608890
v -0.005500 -0.138582 0.608890
v 0.005500 -0.147118 0.580751
v -0.005500 -0.147118 0.580751
v 0.005500 -0.150000 0.551487
v -0.005500 -0.150000 0.551487
v 0.005500 -0.147118 0.522224
v -0.005500 -0.147118 0.522224
v 0.005500 -0.138582 0.494085
v -0.005500 -0.138582 0.494085
v 0.005500 -0.124720 0.468152
v -0.005500 -0.124720 0.468152
v 0.005500 -0.106066 0.445421
v -0.005500 -0.106066 0.445421
v 0.005500 -0.083336 0.426767
v -0.005500 -0.083336 0.426767
v 0.005500 -0.057403 0.412905
v -0.005500 -0.057403 0.412905
v 0.005500 -0.029264 0.404369
v -0.005500 -0.029264 0.404369
v 0.005500 0.000000 0.401487
v -0.005500 0.000000 0.401487
v 0.005500 0.029264 0.404369
v -0.005500 0.029264 0.404369
v 0.005500 0.057403 0.412905
v -0.005500 0.057403 0.412905
v 0.005500 0.083336 0.426767
v -0.005500 0.083336 0.426767
v 0.005500 0.106066 0.445421
v -0.005500 0.106066 0.445421
v 0.005500 0.124720 0.468152
v -0.005500 0.124720 0.468152
v 0.005500 0.138582 0.494085
v -0.005500 0.138582 0.494085
v 0.005500 0.147118 0.522224
v -0.005500 0.147118 0.522224
v 0.005500 0.150000 0.551487
v -0.005500 0.150000 0.551487
v 0.005500 0.147118 0.580751
v -0.005500 0.147118 0.580751
v 0.005500 0.138582 0.608890
v -0.005500 0.138582 0.608890
v 0.005500 0.124720 0.634823
v -0.005500 0.124720 0.634823
v 0.005500 0.106066 0.657553
v -0.005500 0.106066 0.657553
v 0.005500 0.083336 0.676208
v -0.005500 0.083336 0.676208
v 0.005500 0.057403 0.690069
v -0.005500 0.057403 0.690069
v 0.005500 0.029264 0.698605
v -0.005500 0.029264 0.698605
v -0.004299 0.004299 0.000242
v -0.004299 0.004299 0.400242
v 0.004299 0.004299 0.000242
v 0.004299 0.004299 0.400242
v -0.004299 -0.004299 0.000242
v -0.004299 -0.004299 0.400242
v 0.004299 -0.004299 0.000242
v 0.004299 -0.004299 0.400242
vn -0.0000 -0.0980 0.9952
vn -0.0000 -0.2903 0.9569
vn -0.0000 -0.4714 0.8819
vn -0.0000 -0.6344 0.7730
vn -0.0000 -0.7730 0.6344
vn -0.0000 -0.8819 0.4714
vn -0.0000 -0.9569 0.2903
vn -0.0000 -0.9952 0.0980
vn -0.0000 -0.9952 -0.0980
vn -0.0000 -0.9569 -0.2903
vn -0.0000 -0.8819 -0.4714
vn -0.0000 -0.7730 -0.6344
vn -0.0000 -0.6344 -0.7730
vn -0.0000 -0.4714 -0.8819
vn -0.0000 -0.2903 -0.9569
vn -0.0000 -0.0980 -0.9952
vn -0.0000 0.0980 -0.9952
vn -0.0000 0.2903 -0.9569
vn -0.0000 0.4714 -0.8819
vn -0.0000 0.6344 -0.7730
vn -0.0000 0.7730 -0.6344
vn -0.0000 0.8819 -0.4714
vn -0.0000 0.9569 -0.2903
vn -0.0000 0.9952 -0.0980
vn -0.0000 0.9952 0.0980
vn -0.0000 0.9569 0.2903
vn -0.0000 0.8819 0.4714
vn -0.0000 0.7730 0.6344
vn -0.0000 0.6344 0.7730
vn -0.0000 0.4714 0.8819
vn -1.0000 -0.0000 -0.0000
vn -0.0000 0.2903 0.9569
vn -0.0000 0.0980 0.9952
vn 1.0000 -0.0000 -0.0000
vn -0.0000 1.0000 -0.0000
vn -0.0000 -1.0000 -0.0000
vn -0.0000 -0.0000 -1.0000
vn -0.0000 -0.0000 1.0000
vt 0.398743 0.412314
vt 0.401809 0.408842
vt 0.400215 0.413062
vt 0.400219 0.408403
vt 0.402531 0.404398
vt 0.400882 0.404254
vt 0.402531 0.399908
vt 0.400891 0.400059
vt 0.401640 0.395490
vt 0.400061 0.395965
vt 0.399883 0.391340
vt 0.398431 0.392121
vt 0.397330 0.387627
vt 0.396061 0.388680
vt 0.394104 0.384482
vt 0.393068 0.385764
vt 0.390316 0.382047
vt 0.389558 0.383509
vt 0.386119 0.380422
vt 0.385669 0.382005
vt 0.381688 0.379668
vt 0.381543 0.381311
vt 0.377201 0.379701
vt 0.377364 0.381337
vt 0.372800 0.380628
vt 0.373287 0.382200
vt 0.368672 0.382417
vt 0.369464 0.383860
vt 0.364986 0.384998
vt 0.366049 0.386257
vt 0.361870 0.388246
vt 0.363160 0.389271
vt 0.359466 0.392056
vt 0.360937 0.392803
vt 0.357874 0.396275
vt 0.359465 0.396714
vt 0.357146 0.400726
vt 0.358796 0.400872
vt 0.357144 0.405217
vt 0.358784 0.405068
vt 0.358033 0.409634
vt 0.359612 0.409161
vt 0.359786 0.413783
vt 0.361237 0.413003
vt 0.362335 0.417493
vt 0.363604 0.416442
vt 0.365550 0.420634
vt 0.366585 0.419355
vt 0.369331 0.423068
vt 0.370089 0.421607
vt 0.373526 0.424696
vt 0.373978 0.423112
vt 0.377963 0.425458
vt 0.378110 0.423814
vt 0.382454 0.425428
vt 0.382292 0.423790
vt 0.386859 0.424502
vt 0.386373 0.422929
vt 0.390991 0.422714
vt 0.390199 0.421269
vt 0.394683 0.420133
vt 0.393618 0.418871
vt 0.397805 0.416877
vt 0.396513 0.415850
vt 0.395753 0.035636
vt 0.969569 0.418140
vt 0.587065 0.991955
vt 0.320018 0.379668
vt 0.282935 0.416751
vt 0.282935 0.379668
vt 0.320018 0.416751
vt 0.282935 0.453833
vt 0.320018 0.453833
vt 0.282935 0.490916
vt 0.320018 0.490916
vt 0.282935 0.527999
vt 0.245853 0.490916
vt 0.245853 0.453833
vt 0.357101 0.453833
vt 0.491943 1.001430
vt 0.396801 0.992164
vt 0.305294 0.964514
vt 0.220938 0.919545
vt 0.146978 0.858983
vt 0.086253 0.785154
vt 0.041100 0.700898
vt 0.013250 0.609452
vt 0.003776 0.514330
vt 0.013041 0.419186
vt 0.040690 0.327680
vt 0.085661 0.243325
vt 0.146223 0.169365
vt 0.220051 0.108640
vt 0.304306 0.063486
vt 0.490876 0.026163
vt 0.586018 0.035428
vt 0.677526 0.063077
vt 0.761880 0.108047
vt 0.835840 0.168609
vt 0.896565 0.242437
vt 0.941720 0.326693
vt 0.979043 0.513262
vt 0.969777 0.608405
vt 0.942128 0.699911
vt 0.897159 0.784267
vt 0.836595 0.858228
vt 0.762768 0.918952
vt 0.678512 0.964106
vt 0.320018 0.527999
vt 0.357101 0.490916
s 0
g off
g Placa_esquerda_esquerda
usemtl esquerda
f 2/1/1 3/2/1 1/3/1
f 4/4/2 5/5/2 3/2/2
f 6/6/3 7/7/3 5/5/3
f 8/8/4 9/9/4 7/7/4
f 10/10/5 11/11/5 9/9/5
f 12/12/6 13/13/6 11/11/6
f 14/14/7 15/15/7 13/13/7
f 16/16/8 17/17/8 15/15/8
f 18/18/9 19/19/9 17/17/9
f 20/20/10 21/21/10 19/19/10
f 22/22/11 23/23/11 21/21/11
f 24/24/12 25/25/12 23/23/12
f 26/26/13 27/27/13 25/25/13
f 28/28/14 29/29/14 27/27/14
f 30/30/15 31/31/15 29/29/15
f 32/32/16 33/33/16 31/31/16
f 34/34/17 35/35/17 33/33/17
f 36/36/18 37/37/18 35/35/18
f 38/38/19 39/39/19 37/37/19
f 40/40/20 41/41/20 39/39/20
f 42/42/21 43/43/21 41/41/21
f 44/44/22 45/45/22 43/43/22
f 46/46/23 47/47/23 45/45/23
f 48/48/24 49/49/24 47/47/24
f 50/50/25 51/51/25 49/49/25
f 52/52/26 53/53/26 51/51/26
f 54/54/27 55/55/27 53/53/27
f 56/56/28 57/57/28 55/55/28
f 58/58/29 59/59/29 57/57/29
f 60/60/30 61/61/30 59/59/30
f 38/38/31 22/22/31 6/6/31
f 62/62/32 63/63/32 61/61/32
f 64/64/33 1/3/33 63/63/33
f 31/65/34 47/66/34 63/67/34
f 66/68/35 67/69/35 65/70/35
f 68/71/34 71/72/34 67/69/34
f 72/73/36 69/74/36 71/72/36
f 70/75/31 65/76/31 69/74/31
f 71/72/37 65/77/37 67/78/37
f 68/79/38 70/75/38 72/73/38
f 2/1/1 4/4/1 3/2/1
f 4/4/2 6/6/2 5/5/2
f 6/6/3 8/8/3 7/7/3
f 8/8/4 10/10/4 9/9/4
f 10/10/5 12/12/5 11/11/5
f 12/12/6 14/14/6 13/13/6
f 14/14/7 16/16/7 15/15/7
f 16/16/8 18/18/8 17/17/8
f 18/18/9 20/20/9 19/19/9
f 20/20/10 22/22/10 21/21/10
f 22/22/11 24/24/11 23/23/11
f 24/24/12 26/26/12 25/25/12
f 26/26/13 28/28/13 27/27/13
f 28/28/14 30/30/14 29/29/14
f 30/30/15 32/32/15 31/31/15
f 32/32/16 34/34/16 33/33/16
f 34/34/17 36/36/17 35/35/17
f 36/36/18 38/38/18 37/37/18
f 38/38/19 40/40/19 39/39/19
f 40/40/20 42/42/20 41/41/20
f 42/42/21 44/44/21 43/43/21
f 44/44/22 46/46/22 45/45/22
f 46/46/23 48/48/23 47/47/23
f 48/48/24 50/50/24 49/49/24
f 50/50/25 52/52/25 51/51/25
f 52/52/26 54/54/26 53/53/26
f 54/54/27 56/56/27 55/55/27
f 56/56/28 58/58/28 57/57/28
f 58/58/29 60/60/29 59/59/29
f 60/60/30 62/62/30 61/61/30
f 6/6/31 4/4/31 2/1/31
f 2/1/31 64/64/31 62/62/31
f 62/62/31 60/60/31 58/58/31
f 58/58/31 56/56/31 54/54/31
f 54/54/31 52/52/31 50/50/31
f 50/50/31 48/48/31 46/46/31
f 46/46/31 44/44/31 42/42/31
f 42/42/31 40/40/31 38/38/31
f 38/38/31 36/36/31 34/34/31
f 34/34/31 32/32/31 30/30/31
f 30/30/31 28/28/31 26/26/31
f 26/26/31 24/24/31 22/22/31
f 22/22/31 20/20/31 18/18/31
f 18/18/31 16/16/31 14/14/31
f 14/14/31 12/12/31 10/10/31
f 10/10/31 8/8/31 6/6/31
f 6/6/31 2/1/31 62/62/31
f 62/62/31 58/58/31 54/54/31
f 54/54/31 50/50/31 46/46/31
f 46/46/31 42/42/31 38/38/31
f 38/38/31 34/34/31 30/30/31
f 30/30/31 26/26/31 22/22/31
f 22/22/31 18/18/31 14/14/31
f 14/14/31 10/10/31 6/6/31
f 6/6/31 62/62/31 54/54/31
f 54/54/31 46/46/31 38/38/31
f 38/38/31 30/30/31 22/22/31
f 22/22/31 14/14/31 6/6/31
f 6/6/31 54/54/31 38/38/31
f 62/62/32 64/64/32 63/63/32
f 64/64/33 2/1/33 1/3/33
f 63/67/34 1/80/34 3/81/34
f 3/81/34 5/82/34 7/83/34
f 7/83/34 9/84/34 11/85/34
f 11/85/34 13/86/34 15/87/34
f 15/87/34 17/88/34 19/89/34
f 19/89/34 21/90/34 23/91/34
f 23/91/34 25/92/34 27/93/34
f 27/93/34 29/94/34 31/65/34
f 31/65/34 33/95/34 35/96/34
f 35/96/34 37/97/34 39/98/34
f 39/98/34 41/99/34 43/100/34
f 43/100/34 45/101/34 47/66/34
f 47/66/34 49/102/34 51/103/34
f 51/103/34 53/104/34 55/105/34
f 55/105/34 57/106/34 59/107/34
f 59/107/34 61/108/34 63/67/34
f 63/67/34 3/81/34 7/83/34
f 7/83/34 11/85/34 15/87/34
f 15/87/34 19/89/34 23/91/34
f 23/91/34 27/93/34 31/65/34
f 31/65/34 35/96/34 39/98/34
f 39/98/34 43/100/34 47/66/34
f 47/66/34 51/103/34 55/105/34
f 55/105/34 59/107/34 63/67/34
f 63/67/34 7/83/34 15/87/34
f 15/87/34 23/91/34 31/65/34
f 31/65/34 39/98/34 47/66/34
f 47/66/34 55/105/34 63/67/34
f 63/67/34 15/87/34 31/65/34
f 66/68/35 68/71/35 67/69/35
f 68/71/34 72/73/34 71/72/34
f 72/73/36 70/75/36 69/74/36
f 70/75/31 66/109/31 65/76/31
f 71/72/37 69/74/37 65/77/37
f 68/79/38 66/110/38 70/75/38
