# Blender 5.0.0
# www.blender.org
mtllib frente.mtl
g Placa_em_frente_Mesh
v 0.005500 0.000667 0.701487
v -0.005500 0.000667 0.701487
v 0.005500 -0.028597 0.698605
v -0.005500 -0.028597 0.698605
v 0.005500 -0.056736 0.690069
v -0.005500 -0.056736 0.690069
v 0.005500 -0.082669 0.676208
v -0.005500 -0.082669 0.676208
v 0.005500 -0.105400 0.657553
v -0.005500 -0.105400 0.657553
v 0.005500 -0.124054 0.634823
v -0.005500 -0.124054 0.634823
v 0.005500 -0.137915 0.608890
v -0.005500 -0.137915 0.608890
v 0.005500 -0.146451 0.580751
v -0.005500 -0.146451 0.580751
v 0.005500 -0.149333 0.551487
v -0.005500 -0.149333 0.551487
v 0.005500 -0.146451 0.522224
v -0.005500 -0.146451 0.522224
v 0.005500 -0.137915 0.494085
v -0.005500 -0.137915 0.494085
v 0.005500 -0.124054 0.468152
v -0.005500 -0.124054 0.468152
v 0.005500 -0.105400 0.445421
v -0.005500 -0.105400 0.445421
v 0.005500 -0.082669 0.426767
v -0.005500 -0.082669 0.426767
v 0.005500 -0.056736 0.412905
v -0.005500 -0.056736 0.412905
v 0.005500 -0.028597 0.404369
v -0.005500 -0.028597 0.404369
v 0.005500 0.000667 0.401487
v -0.005500 0.000667 0.401487
v 0.005500 0.029930 0.404369
v -0.005500 0.029930 0.404369
v 0.005500 0.058069 0.412905
v -0.005500 0.058069 0.412905
v 0.005500 0.084002 0.426767
v -0.005500 0.084002 0.426767
v 0.005500 0.106733 0.445421
v -0.005500 0.106733 0.445421
v 0.005500 0.125387 0.468152
v -0.005500 0.125387 0.468152
v 0.005500 0.139248 0.494085
v -0.005500 0.139248 0.494085
v 0.005500 0.147784 0.522224
v -0.005500 0.147784 0.522224
v 0.005500 0.150667 0.551487
v -0.005500 0.150667 0.551487
v 0.005500 0.147784 0.580751
v -0.005500 0.147784 0.580751
v 0.005500 0.139248 0.608890
v -0.005500 0.139248 0.608890
v 0.005500 0.125387 0.634823
v -0.005500 0.125387 0.634823
v 0.005500 0.106733 0.657553
v -0.005500 0.106733 0.657553
v 0.005500 0.084002 0.676208
v -0.005500 0.084002 0.676208
v 0.005500 0.058069 0.690069
v -0.005500 0.058069 0.690069
v 0.005500 0.029930 0.698605
v -0.005500 0.029930 0.698605
v -0.004299 0.004965 0.000242
v -0.004299 0.004965 0.400242
v 0.004299 0.004965 0.000242
v 0.004299 0.004965 0.400242
v -0.004299 -0.003632 0.000242
v -0.004299 -0.003632 0.400242
v 0.004299 -0.003632 0.000242
v 0.004299 -0.003632 0.400242
vn -0.0000 -0.0980 0.9952
vn -0.0000 -0.2903 0.9569
vn -0.0000 -0.4714 0.8819
vn -0.0000 -0.6344 0.7730
vn -0.0000 -0.7730 0.6344
vn -0.0000 -0.8819 0.4714
vn -0.0000 -0.9569 0.2903
vn -0.0000 -0.9952 0.0980
vn -0.0000 -0.9952 -0.0980
vn -0.0000 -0.9569 -0.2903
vn -0.0000 -0.8819 -0.4714
vn -0.0000 -0.7730 -0.6344
vn -0.0000 -0.6344 -0.7730
vn -0.0000 -0.4714 -0.8819
vn -0.0000 -0.2903 -0.9569
vn -0.0000 -0.0980 -0.9952
vn -0.0000 0.0980 -0.9952
vn -0.0000 0.2903 -0.9569
vn -0.0000 0.4714 -0.8819
vn -0.0000 0.6344 -0.7730
vn -0.0000 0.7730 -0.6344
vn -0.0000 0.8819 -0.4714
vn -0.0000 0.9569 -0.2903
vn -0.0000 0.9952 -0.0980
vn -0.0000 0.9952 0.0980
vn -0.0000 0.9569 0.2903
vn -0.0000 0.8819 0.4714
vn -0.0000 0.7730 0.6344
vn -0.0000 0.6344 0.7730
vn -0.0000 0.4714 0.8819
vn -1.0000 -0.0000 -0.0000
vn -0.0000 0.2903 0.9569
vn -0.0000 0.0980 0.9952
vn 1.0000 -0.0000 -0.0000
vn -0.0000 1.0000 -0.0000
vn -0.0000 -1.0000 -0.0000
vn -0.0000 -0.0000 -1.0000
vn -0.0000 -0.0000 1.0000
vt 0.362509 0.548572
vt 0.365574 0.545099
vt 0.363981 0.549319
vt 0.363985 0.544660
vt 0.366297 0.540655
vt 0.364648 0.540511
vt 0.366297 0.536166
vt 0.364657 0.536316
vt 0.365406 0.531748
vt 0.363826 0.532222
vt 0.363649 0.527597
vt 0.362197 0.528378
vt 0.361096 0.523884
vt 0.356834 0.522021
vt 0.357870 0.520740
vt 0.354082 0.518304
vt 0.353324 0.519767
vt 0.349885 0.516679
vt 0.349435 0.518262
vt 0.345454 0.515925
vt 0.345309 0.517568
vt 0.340967 0.515959
vt 0.341130 0.517595
vt 0.336565 0.516886
vt 0.337053 0.518458
vt 0.332438 0.518675
vt 0.333230 0.520118
vt 0.328752 0.521256
vt 0.329815 0.522515
vt 0.325636 0.524503
vt 0.326926 0.525529
vt 0.323232 0.528314
vt 0.324703 0.529060
vt 0.321640 0.532533
vt 0.323231 0.532972
vt 0.320912 0.536984
vt 0.322562 0.537130
vt 0.320910 0.541475
vt 0.322550 0.541325
vt 0.321799 0.545892
vt 0.323378 0.545418
vt 0.323552 0.550040
vt 0.325003 0.549261
vt 0.326101 0.553751
vt 0.327369 0.552700
vt 0.329316 0.556891
vt 0.330351 0.555613
vt 0.333097 0.559326
vt 0.333855 0.557865
vt 0.337292 0.560954
vt 0.337744 0.559369
vt 0.341729 0.561716
vt 0.346058 0.560048
vt 0.346220 0.561685
vt 0.350625 0.560760
vt 0.350138 0.559186
vt 0.354757 0.558971
vt 0.357384 0.555129
vt 0.358449 0.556390
vt 0.361571 0.553135
vt 0.360279 0.552108
vt 0.406106 0.027120
vt 0.979922 0.409624
vt 0.597418 0.983439
vt 0.283784 0.515925
vt 0.246701 0.553008
vt 0.246701 0.515925
vt 0.283784 0.553008
vt 0.246701 0.590091
vt 0.283784 0.590091
vt 0.246701 0.627174
vt 0.283784 0.627174
vt 0.246701 0.664257
vt 0.209618 0.627174
vt 0.209618 0.590091
vt 0.320867 0.590091
vt 0.359827 0.524938
vt 0.341876 0.560072
vt 0.353965 0.557527
vt 0.502295 0.992914
vt 0.407153 0.983648
vt 0.315646 0.955998
vt 0.231291 0.911029
vt 0.157330 0.850466
vt 0.096606 0.776638
vt 0.051452 0.692382
vt 0.023603 0.600936
vt 0.014128 0.505814
vt 0.023394 0.410670
vt 0.051043 0.319164
vt 0.096013 0.234809
vt 0.156576 0.160849
vt 0.230404 0.100124
vt 0.314659 0.054970
vt 0.501228 0.017647
vt 0.596370 0.026912
vt 0.687878 0.054561
vt 0.772233 0.099531
vt 0.846193 0.160093
vt 0.906917 0.233921
vt 0.952072 0.318177
vt 0.989395 0.504745
vt 0.980130 0.599889
vt 0.952481 0.691395
vt 0.907511 0.775751
vt 0.846948 0.849712
vt 0.773121 0.910436
vt 0.688864 0.955589
vt 0.283784 0.664257
vt 0.320867 0.627174
s 0
g off
g Placa_em_frente_frente
usemtl frente
f 2/1/1 3/2/1 1/3/1
f 4/4/2 5/5/2 3/2/2
f 6/6/3 7/7/3 5/5/3
f 8/8/4 9/9/4 7/7/4
f 10/10/5 11/11/5 9/9/5
f 12/12/6 13/13/6 11/11/6
f 13/13/7 16/14/7 15/15/7
f 16/14/8 17/16/8 15/15/8
f 18/17/9 19/18/9 17/16/9
f 20/19/10 21/20/10 19/18/10
f 22/21/11 23/22/11 21/20/11
f 24/23/12 25/24/12 23/22/12
f 26/25/13 27/26/13 25/24/13
f 28/27/14 29/28/14 27/26/14
f 30/29/15 31/30/15 29/28/15
f 32/31/16 33/32/16 31/30/16
f 34/33/17 35/34/17 33/32/17
f 36/35/18 37/36/18 35/34/18
f 38/37/19 39/38/19 37/36/19
f 40/39/20 41/40/20 39/38/20
f 42/41/21 43/42/21 41/40/21
f 44/43/22 45/44/22 43/42/22
f 46/45/23 47/46/23 45/44/23
f 48/47/24 49/48/24 47/46/24
f 50/49/25 51/50/25 49/48/25
f 52/51/26 53/52/26 51/50/26
f 53/52/27 56/53/27 55/54/27
f 56/53/28 57/55/28 55/54/28
f 58/56/29 59/57/29 57/55/29
f 59/57/30 62/58/30 61/59/30
f 38/37/31 22/21/31 6/6/31
f 62/58/32 63/60/32 61/59/32
f 64/61/33 1/3/33 63/60/33
f 31/62/34 47/63/34 63/64/34
f 66/65/35 67/66/35 65/67/35
f 68/68/34 71/69/34 67/66/34
f 72/70/36 69/71/36 71/69/36
f 70/72/31 65/73/31 69/71/31
f 71/69/37 65/74/37 67/75/37
f 68/76/38 70/72/38 72/70/38
f 2/1/1 4/4/1 3/2/1
f 4/4/2 6/6/2 5/5/2
f 6/6/3 8/8/3 7/7/3
f 8/8/4 10/10/4 9/9/4
f 10/10/5 12/12/5 11/11/5
f 12/12/6 14/77/6 13/13/6
f 13/13/7 14/77/7 16/14/7
f 16/14/8 18/17/8 17/16/8
f 18/17/9 20/19/9 19/18/9
f 20/19/10 22/21/10 21/20/10
f 22/21/11 24/23/11 23/22/11
f 24/23/12 26/25/12 25/24/12
f 26/25/13 28/27/13 27/26/13
f 28/27/14 30/29/14 29/28/14
f 30/29/15 32/31/15 31/30/15
f 32/31/16 34/33/16 33/32/16
f 34/33/17 36/35/17 35/34/17
f 36/35/18 38/37/18 37/36/18
f 38/37/19 40/39/19 39/38/19
f 40/39/20 42/41/20 41/40/20
f 42/41/21 44/43/21 43/42/21
f 44/43/22 46/45/22 45/44/22
f 46/45/23 48/47/23 47/46/23
f 48/47/24 50/49/24 49/48/24
f 50/49/25 52/51/25 51/50/25
f 52/51/26 54/78/26 53/52/26
f 53/52/27 54/78/27 56/53/27
f 56/53/28 58/56/28 57/55/28
f 58/56/29 60/79/29 59/57/29
f 59/57/30 60/79/30 62/58/30
f 6/6/31 4/4/31 2/1/31
f 2/1/31 64/61/31 62/58/31
f 62/58/31 60/79/31 58/56/31
f 58/56/31 56/53/31 54/78/31
f 54/78/31 52/51/31 50/49/31
f 50/49/31 48/47/31 46/45/31
f 46/45/31 44/43/31 42/41/31
f 42/41/31 40/39/31 38/37/31
f 38/37/31 36/35/31 34/33/31
f 34/33/31 32/31/31 30/29/31
f 30/29/31 28/27/31 26/25/31
f 26/25/31 24/23/31 22/21/31
f 22/21/31 20/19/31 18/17/31
f 18/17/31 16/14/31 14/77/31
f 14/77/31 12/12/31 10/10/31
f 10/10/31 8/8/31 6/6/31
f 6/6/31 2/1/31 62/58/31
f 62/58/31 58/56/31 54/78/31
f 54/78/31 50/49/31 46/45/31
f 46/45/31 42/41/31 38/37/31
f 38/37/31 34/33/31 30/29/31
f 30/29/31 26/25/31 22/21/31
f 22/21/31 18/17/31 14/77/31
f 14/77/31 10/10/31 6/6/31
f 6/6/31 62/58/31 54/78/31
f 54/78/31 46/45/31 38/37/31
f 38/37/31 30/29/31 22/21/31
f 22/21/31 14/77/31 6/6/31
f 6/6/31 54/78/31 38/37/31
f 62/58/32 64/61/32 63/60/32
f 64/61/33 2/1/33 1/3/33
f 63/64/34 1/80/34 3/81/34
f 3/81/34 5/82/34 7/83/34
f 7/83/34 9/84/34 11/85/34
f 11/85/34 13/86/34 15/87/34
f 15/87/34 17/88/34 19/89/34
f 19/89/34 21/90/34 23/91/34
f 23/91/34 25/92/34 27/93/34
f 27/93/34 29/94/34 31/62/34
f 31/62/34 33/95/34 35/96/34
f 35/96/34 37/97/34 39/98/34
f 39/98/34 41/99/34 43/100/34
f 43/100/34 45/101/34 47/63/34
f 47/63/34 49/102/34 51/103/34
f 51/103/34 53/104/34 55/105/34
f 55/105/34 57/106/34 59/107/34
f 59/107/34 61/108/34 63/64/34
f 63/64/34 3/81/34 7/83/34
f 7/83/34 11/85/34 15/87/34
f 15/87/34 19/89/34 23/91/34
f 23/91/34 27/93/34 31/62/34
f 31/62/34 35/96/34 39/98/34
f 39/98/34 43/100/34 47/63/34
f 47/63/34 51/103/34 55/105/34
f 55/105/34 59/107/34 63/64/34
f 63/64/34 7/83/34 15/87/34
f 15/87/34 23/91/34 31/62/34
f 31/62/34 39/98/34 47/63/34
f 47/63/34 55/105/34 63/64/34
f 63/64/34 15/87/34 31/62/34
f 66/65/35 68/68/35 67/66/35
f 68/68/34 72/70/34 71/69/34
f 72/70/36 70/72/36 69/71/36
f 70/72/31 66/109/31 65/73/31
f 71/69/37 69/71/37 65/74/37
f 68/76/38 66/110/38 70/72/38
